<svg id="Capa_1" enable-background="new 0 0 497 497" height="512" viewBox="0 0 497 497" width="512" xmlns="http://www.w3.org/2000/svg"><g><path d="m69.965 248.706c-6.28 9.191-10.895 19.361-13.745 29.997l-23.675 88.357c-1.072 4 1.302 8.112 5.302 9.184l88.357 23.675c10.691 2.865 21.883 3.944 33.047 3.111z" fill="#faec8e"/><path d="m182.738 285.135-112.681-37.968c-.037.057-.079.127-.116.184-3.496 7.654-5.644 16.388-6.382 25.781l-6.65 84.65 76.634 36.566c8.569 4.09 17.28 6.602 25.708 7.348.027.007 23.487-116.561 23.487-116.561z" fill="#fbf6c3"/><path d="m337.947 403.012c11.099.843 22.215-.245 32.851-3.095l88.357-23.675c4-1.072 6.374-5.184 5.302-9.184l-23.675-88.357c-2.865-10.691-7.526-20.924-13.83-30.175z" fill="#faec8e"/><path d="m314.264 285.133 23.459 116.568c.068.004.15.005.217.009 8.376-.799 17.014-3.306 25.518-7.364l76.634-36.566-6.65-84.65c-.743-9.466-2.923-18.266-6.49-25.937-.007-.028-112.688 37.94-112.688 37.94z" fill="#fbf6c3"/><path d="m337.589 93.78c-4.82-10.034-11.32-19.116-19.106-26.902l-64.682-64.682c-2.928-2.928-7.676-2.928-10.605 0l-64.682 64.682c-7.827 7.827-14.357 16.98-19.217 27.064z" fill="#faec8e"/><path d="m248.499 172.563 89.222-78.6c-.03-.061-.071-.132-.101-.193-4.88-6.854-11.37-13.081-19.136-18.417l-69.984-48.084-69.984 48.084c-7.827 5.376-14.357 11.664-19.217 18.59-.022.019 89.2 78.62 89.2 78.62z" fill="#fbf6c3"/><path d="m159.41 403.22c4.82 10.034 11.32 19.116 19.106 26.902l64.682 64.682c2.928 2.928 7.676 2.928 10.605 0l64.682-64.682c7.827-7.827 14.357-16.98 19.217-27.064z" fill="#fbf6c3"/><path d="m248.5 324.437-89.222 78.6c.03.061.071.132.101.193 4.88 6.854 11.37 13.081 19.136 18.417l69.984 48.084 69.984-48.084c7.827-5.376 14.357-11.664 19.217-18.59.022-.019-89.2-78.62-89.2-78.62z" fill="#fbf9e9"/><path d="m347.472 360.128c0 15.37-3.503 29.93-9.75 42.91-14.367-1.073-28.725-5.326-42.029-13.011-25.414-14.671-41.644-38.961-47.193-65.59-5.549 26.629-21.779 50.919-47.193 65.6-13.304 7.685-27.662 11.927-42.029 13-6.247-12.98-9.75-27.54-9.75-42.91 0-29.342 12.92-55.536 33.21-73.659h131.524c20.29 18.124 33.21 44.318 33.21 73.66z" fill="#faec8e"/><path d="m427.037 248.294c6.28-9.191 10.895-19.361 13.745-29.997l23.675-88.357c1.072-4-1.302-8.112-5.302-9.184l-88.357-23.676c-10.691-2.865-21.883-3.944-33.047-3.111z" fill="#fbf6c3"/><path d="m314.264 210.531 112.681 37.968c.037-.057.079-.127.116-.184 3.496-7.654 5.644-16.388 6.382-25.781l6.65-84.65-76.634-36.566c-8.569-4.09-17.28-6.602-25.708-7.348-.028-.008-23.487 116.561-23.487 116.561z" fill="#fbf9e9"/><path d="m295.687 106.973c13.311-7.685 27.671-11.931 42.036-13.011 6.254 12.979 9.75 27.539 9.747 42.903.001 29.345-12.919 55.545-33.206 73.665 25.835-8.509 54.986-6.598 80.408 8.07 13.307 7.679 24.16 17.992 32.273 29.898-8.118 11.9-18.975 22.214-32.286 29.899-25.411 14.671-54.555 16.579-80.396 8.069l-65.762-113.903c5.55-26.633 21.775-50.919 47.186-65.59z" fill="#faec8e"/><path d="m159.053 93.985c-11.099-.843-22.215.245-32.851 3.095l-88.357 23.675c-4 1.072-6.374 5.184-5.302 9.184l23.675 88.357c2.865 10.691 7.526 20.924 13.83 30.175z" fill="#fbf6c3"/><path d="m182.736 210.531-23.459-116.569c-.068-.004-.15-.004-.217-.009-8.376.799-17.014 3.306-25.518 7.364l-76.634 36.566 6.65 84.65c.743 9.466 2.923 18.266 6.49 25.938.007.028 112.688-37.94 112.688-37.94z" fill="#fbf9e9"/><path d="m102.341 278.398c-13.311-7.685-24.168-17.999-32.286-29.899 8.113-11.906 18.975-22.213 32.282-29.893 25.412-14.673 54.563-16.584 80.399-8.075-20.287-18.12-33.207-44.32-33.215-73.67-.003-15.364 3.501-29.919 9.756-42.898 14.365 1.08 28.726 5.326 42.036 13.011 25.411 14.671 41.636 38.956 47.186 65.59l-65.762 113.903c-25.841 8.51-54.985 6.602-80.396-8.069z" fill="#faec8e"/><path d="m248.5 172.562c-13.98 0-25.312 11.333-25.312 25.313 0 4.611 1.239 8.93 3.394 12.654v37.971h43.838v-37.971c2.154-3.723 3.394-8.043 3.394-12.654-.002-13.98-11.334-25.313-25.314-25.313z" fill="#a5c560"/><path d="m182.736 210.531c-6.99 12.107-2.842 27.588 9.265 34.577 3.993 2.306 8.354 3.392 12.655 3.388l32.884 18.986 10.96-18.982-21.925-37.968c-2.147-3.728-5.268-6.96-9.262-9.266-12.106-6.99-27.587-2.842-34.577 9.265z" fill="#cfda7a"/><path d="m182.736 286.468c6.99 12.107 22.471 16.255 34.577 9.265 3.993-2.306 7.114-5.538 9.262-9.266l32.884-18.986-10.959-18.981-43.843.003c-4.302-.004-8.662 1.082-12.655 3.388-12.108 6.99-16.256 22.471-9.266 34.577z" fill="#a5c560"/><path d="m248.5 324.437c13.98 0 25.312-11.333 25.312-25.313 0-4.611-1.239-8.93-3.394-12.654v-37.97h-21.918l-21.919 37.971c-2.154 3.723-3.394 8.043-3.394 12.654.001 13.979 11.333 25.312 25.313 25.312z" fill="#cfda7a"/><path d="m314.264 286.468c6.99-12.107 2.842-27.588-9.265-34.577-3.993-2.306-8.354-3.392-12.655-3.388l-32.884-18.986-10.96 18.983 21.925 37.968c2.147 3.728 5.268 6.96 9.262 9.266 12.106 6.989 27.587 2.841 34.577-9.266z" fill="#a5c560"/><path d="m314.264 210.531c-6.99-12.107-22.471-16.255-34.577-9.265-3.993 2.306-7.114 5.538-9.262 9.266l-21.925 37.968 43.843-.003c4.302.004 8.662-1.082 12.655-3.388 12.108-6.991 16.256-22.471 9.266-34.578z" fill="#cfda7a"/></g></svg>